<svg width="176" height="182" viewBox="0 0 176 182" fill="none" xmlns="http://www.w3.org/2000/svg">
  <path
    d="M0 24C0 19.5817 3.58172 16 8 16C12.4183 16 16 19.5817 16 24V174C16 178.418 12.4183 182 8 182C3.58172 182 0 178.418 0 174V24Z"
    fill="white"
  />
  <path
    d="M10 38.1826C10 33.8574 13.4498 30.3311 17.7737 30.236L27.9965 30.0113C45.8308 29.6194 59.3869 33.5391 72.4572 37.3191C83.9724 40.6487 95.1111 43.8701 109.05 44.0431C126.434 44.2589 143.219 39.8324 157.936 31.2208C166.172 26.4022 176 32.3429 176 41.8854V113.685C176 118.011 172.55 121.537 168.226 121.632L157.475 121.868C139.745 122.258 127.291 126.394 114.236 130.728C99.5425 135.607 84.0915 140.738 58.6095 140.178L18.0035 139.286C13.6267 139.19 10 135.613 10 131.235V38.1826Z"
    fill="white"
  />
</svg>
